<svg width="55" height="36" viewBox="0 0 55 36" fill="none" xmlns="http://www.w3.org/2000/svg">
    <path
        d="M0.182795 35V0.818181H23.2155V6.77663H7.40971V14.9215H22.0305V20.88H7.40971V29.0415H23.2822V35H0.182795ZM47.5041 10.6488C47.3706 9.30244 46.7975 8.25651 45.785 7.51101C44.7724 6.76551 43.3983 6.39275 41.6625 6.39275C40.483 6.39275 39.4872 6.55966 38.6749 6.89347C37.8626 7.21615 37.2395 7.66678 36.8056 8.24538C36.3828 8.82398 36.1713 9.48047 36.1713 10.2148C36.1491 10.8268 36.277 11.3609 36.5552 11.8171C36.8445 12.2733 37.2395 12.6683 37.7402 13.0021C38.2409 13.3248 38.8195 13.6085 39.476 13.8533C40.1325 14.087 40.8335 14.2873 41.579 14.4542L44.65 15.1886C46.141 15.5224 47.5096 15.9674 48.7559 16.5238C50.0021 17.0801 51.0814 17.7644 51.9938 18.5767C52.9062 19.389 53.6127 20.3459 54.1135 21.4474C54.6253 22.549 54.8868 23.8119 54.8979 25.2362C54.8868 27.328 54.3527 29.1417 53.2956 30.6772C52.2497 32.2016 50.7364 33.3866 48.7559 34.2322C46.7864 35.0668 44.4108 35.484 41.6291 35.484C38.8696 35.484 36.4662 35.0612 34.4189 34.2156C32.3826 33.3699 30.7915 32.1181 29.6454 30.4602C28.5105 28.7912 27.9152 26.7272 27.8596 24.2681H34.8528C34.9307 25.4142 35.2589 26.3711 35.8375 27.1388C36.4273 27.8955 37.2117 28.4685 38.1909 28.858C39.1812 29.2363 40.2994 29.4254 41.5456 29.4254C42.7696 29.4254 43.8322 29.2474 44.7335 28.8913C45.6459 28.5353 46.3525 28.0401 46.8532 27.4059C47.3539 26.7717 47.6042 26.0429 47.6042 25.2195C47.6042 24.4517 47.3761 23.8063 46.9199 23.2834C46.4748 22.7604 45.8184 22.3153 44.9505 21.9482C44.0937 21.581 43.0422 21.2472 41.796 20.9467L38.074 20.0121C35.1922 19.3111 32.9167 18.2151 31.2477 16.7241C29.5787 15.2331 28.7497 13.2247 28.7608 10.6989C28.7497 8.62926 29.3005 6.82114 30.4132 5.2745C31.537 3.72786 33.0781 2.5206 35.0364 1.6527C36.9947 0.7848 39.2201 0.350851 41.7125 0.350851C44.2495 0.350851 46.4637 0.7848 48.3553 1.6527C50.258 2.5206 51.7379 3.72786 52.7949 5.2745C53.852 6.82114 54.3972 8.61257 54.4306 10.6488H47.5041Z"
        fill="#000000" />
</svg>
    