<svg width="62" height="15" viewBox="0 0 62 15" fill="none" xmlns="http://www.w3.org/2000/svg">
    <path
        d="M0.277433 14V0.909091H3.04519V11.718H8.6574V14H0.277433ZM13.2389 14.1854C12.6125 14.1854 12.0542 14.0767 11.5642 13.8594C11.0741 13.6378 10.6863 13.3118 10.4008 12.8814C10.1196 12.4467 9.97896 11.9055 9.97896 11.2578C9.97896 10.7124 10.0791 10.2543 10.2794 9.88352C10.4797 9.51278 10.7524 9.21449 11.0976 8.98864C11.4427 8.76278 11.8348 8.59233 12.2737 8.47727C12.7169 8.36222 13.1814 8.28125 13.6672 8.23438C14.2382 8.17472 14.6984 8.11932 15.0479 8.06818C15.3973 8.01278 15.6508 7.93182 15.8085 7.82528C15.9662 7.71875 16.045 7.56108 16.045 7.35227V7.31392C16.045 6.90909 15.9172 6.59588 15.6615 6.37429C15.4101 6.1527 15.0521 6.0419 14.5876 6.0419C14.0976 6.0419 13.7077 6.15057 13.4179 6.3679C13.1281 6.58097 12.9363 6.84943 12.8426 7.1733L10.3241 6.96875C10.452 6.37216 10.7034 5.85653 11.0784 5.42188C11.4534 4.98295 11.9371 4.64631 12.5294 4.41193C13.126 4.1733 13.8163 4.05398 14.6004 4.05398C15.1459 4.05398 15.6679 4.1179 16.1665 4.24574C16.6693 4.37358 17.1146 4.57173 17.5024 4.8402C17.8944 5.10866 18.2034 5.45384 18.4292 5.87571C18.6551 6.29332 18.768 6.79403 18.768 7.37784V14H16.1856V12.6385H16.1089C15.9513 12.9453 15.7403 13.2159 15.4761 13.4503C15.2119 13.6804 14.8944 13.8615 14.5237 13.9936C14.153 14.1214 13.7247 14.1854 13.2389 14.1854ZM14.0187 12.3061C14.4193 12.3061 14.773 12.2273 15.0798 12.0696C15.3866 11.9077 15.6274 11.6903 15.8021 11.4176C15.9768 11.1449 16.0642 10.8359 16.0642 10.4908V9.44886C15.979 9.50426 15.8618 9.5554 15.7126 9.60227C15.5677 9.64489 15.4037 9.68537 15.2204 9.72372C15.0372 9.75781 14.854 9.78977 14.6707 9.8196C14.4875 9.84517 14.3213 9.86861 14.1721 9.88991C13.8525 9.93679 13.5734 10.0114 13.3348 10.1136C13.0961 10.2159 12.9108 10.3544 12.7787 10.5291C12.6466 10.6996 12.5805 10.9126 12.5805 11.1683C12.5805 11.5391 12.7148 11.8224 12.9832 12.0185C13.2559 12.2102 13.6011 12.3061 14.0187 12.3061ZM20.8806 14V4.18182H23.5205V5.89489H23.6228C23.8018 5.28551 24.1022 4.82528 24.5241 4.5142C24.9459 4.19886 25.4317 4.04119 25.9814 4.04119C26.1178 4.04119 26.2648 4.04972 26.4225 4.06676C26.5802 4.08381 26.7187 4.10724 26.838 4.13707V6.55327C26.7101 6.51491 26.5333 6.48082 26.3074 6.45099C26.0816 6.42116 25.8749 6.40625 25.6874 6.40625C25.2868 6.40625 24.9289 6.49361 24.6135 6.66832C24.3025 6.83878 24.0553 7.07741 23.8721 7.38423C23.6931 7.69105 23.6036 8.04474 23.6036 8.44531V14H20.8806ZM30.7643 14.1854C30.1379 14.1854 29.5796 14.0767 29.0896 13.8594C28.5995 13.6378 28.2117 13.3118 27.9262 12.8814C27.645 12.4467 27.5044 11.9055 27.5044 11.2578C27.5044 10.7124 27.6045 10.2543 27.8048 9.88352C28.0051 9.51278 28.2778 9.21449 28.623 8.98864C28.9681 8.76278 29.3602 8.59233 29.7991 8.47727C30.2423 8.36222 30.7068 8.28125 31.1926 8.23438C31.7636 8.17472 32.2238 8.11932 32.5732 8.06818C32.9227 8.01278 33.1762 7.93182 33.3339 7.82528C33.4916 7.71875 33.5704 7.56108 33.5704 7.35227V7.31392C33.5704 6.90909 33.4426 6.59588 33.1869 6.37429C32.9355 6.1527 32.5775 6.0419 32.113 6.0419C31.623 6.0419 31.233 6.15057 30.9433 6.3679C30.6535 6.58097 30.4617 6.84943 30.368 7.1733L27.8495 6.96875C27.9774 6.37216 28.2288 5.85653 28.6038 5.42188C28.9788 4.98295 29.4624 4.64631 30.0548 4.41193C30.6514 4.1733 31.3417 4.05398 32.1258 4.05398C32.6713 4.05398 33.1933 4.1179 33.6919 4.24574C34.1947 4.37358 34.64 4.57173 35.0278 4.8402C35.4198 5.10866 35.7288 5.45384 35.9546 5.87571C36.1805 6.29332 36.2934 6.79403 36.2934 7.37784V14H33.711V12.6385H33.6343C33.4767 12.9453 33.2657 13.2159 33.0015 13.4503C32.7373 13.6804 32.4198 13.8615 32.0491 13.9936C31.6784 14.1214 31.2501 14.1854 30.7643 14.1854ZM31.5441 12.3061C31.9447 12.3061 32.2984 12.2273 32.6052 12.0696C32.912 11.9077 33.1528 11.6903 33.3275 11.4176C33.5022 11.1449 33.5896 10.8359 33.5896 10.4908V9.44886C33.5044 9.50426 33.3872 9.5554 33.238 9.60227C33.0931 9.64489 32.9291 9.68537 32.7458 9.72372C32.5626 9.75781 32.3794 9.78977 32.1961 9.8196C32.0129 9.84517 31.8467 9.86861 31.6975 9.88991C31.3779 9.93679 31.0988 10.0114 30.8602 10.1136C30.6215 10.2159 30.4362 10.3544 30.3041 10.5291C30.172 10.6996 30.1059 10.9126 30.1059 11.1683C30.1059 11.5391 30.2401 11.8224 30.5086 12.0185C30.7813 12.2102 31.1265 12.3061 31.5441 12.3061ZM47.2078 4.18182L43.7753 14H40.7071L37.2746 4.18182H40.151L42.1901 11.2067H42.2923L44.325 4.18182H47.2078ZM52.7593 14.1918C51.7494 14.1918 50.8801 13.9872 50.1514 13.5781C49.4269 13.1648 48.8687 12.581 48.4767 11.8267C48.0846 11.0682 47.8886 10.1712 47.8886 9.13565C47.8886 8.12571 48.0846 7.23935 48.4767 6.47656C48.8687 5.71378 49.4205 5.11932 50.1322 4.69318C50.8481 4.26705 51.6876 4.05398 52.6507 4.05398C53.2984 4.05398 53.9014 4.15838 54.4596 4.36719C55.0221 4.57173 55.5122 4.88068 55.9298 5.29403C56.3517 5.70739 56.6798 6.22727 56.9142 6.85369C57.1485 7.47585 57.2657 8.20455 57.2657 9.03977V9.78764H48.9752V8.10014H54.7025C54.7025 7.7081 54.6173 7.3608 54.4468 7.05824C54.2764 6.75568 54.0399 6.51918 53.7373 6.34872C53.439 6.17401 53.0917 6.08665 52.6954 6.08665C52.282 6.08665 51.9156 6.18253 51.596 6.37429C51.2806 6.56179 51.0335 6.81534 50.8545 7.13494C50.6755 7.45028 50.5839 7.80185 50.5796 8.18963V9.79403C50.5796 10.2798 50.6691 10.6996 50.8481 11.0533C51.0313 11.407 51.2892 11.6797 51.6215 11.8714C51.9539 12.0632 52.3481 12.1591 52.8041 12.1591C53.1066 12.1591 53.3836 12.1165 53.635 12.0312C53.8865 11.946 54.1017 11.8182 54.2806 11.6477C54.4596 11.4773 54.596 11.2685 54.6897 11.0213L57.2082 11.1875C57.0803 11.7926 56.8183 12.321 56.422 12.7727C56.0299 13.2202 55.5228 13.5696 54.9007 13.821C54.2828 14.0682 53.569 14.1918 52.7593 14.1918ZM61.7657 0.909091V14H59.0427V0.909091H61.7657Z"
        fill="#000000" />
</svg>
    
    