<svg width="60" height="25" viewBox="0 0 60 25" fill="none" xmlns="http://www.w3.org/2000/svg">
    <path
        d="M13.1143 6.93856C13.0262 6.05054 12.6483 5.36068 11.9804 4.86896C11.3126 4.37725 10.4062 4.13139 9.26132 4.13139C8.48338 4.13139 7.82654 4.24148 7.29079 4.46165C6.75505 4.67448 6.34406 4.97171 6.05784 5.35334C5.77896 5.73497 5.63952 6.16797 5.63952 6.65234C5.62484 7.05599 5.70924 7.40826 5.89271 7.70916C6.08353 8.01006 6.34406 8.2706 6.67432 8.49077C7.00457 8.7036 7.3862 8.89074 7.8192 9.0522C8.2522 9.20632 8.71456 9.33842 9.20628 9.44851L11.2318 9.93288C12.2153 10.1531 13.118 10.4466 13.9399 10.8136C14.7619 11.1805 15.4738 11.6319 16.0756 12.1676C16.6774 12.7034 17.1434 13.3345 17.4737 14.0611C17.8113 14.7876 17.9837 15.6206 17.9911 16.56C17.9837 17.9397 17.6315 19.136 16.9343 20.1488C16.2444 21.1542 15.2463 21.9358 13.9399 22.4936C12.6409 23.044 11.0741 23.3192 9.2393 23.3192C7.41923 23.3192 5.834 23.0404 4.48362 22.4826C3.14058 21.9248 2.0911 21.0992 1.33518 20.0057C0.586603 18.9048 0.193966 17.5434 0.157271 15.9215H4.76984C4.82122 16.6774 5.03772 17.3086 5.41934 17.815C5.80831 18.314 6.32571 18.692 6.97155 18.9489C7.62472 19.1984 8.36229 19.3232 9.18426 19.3232C9.99155 19.3232 10.6924 19.2057 11.2869 18.9709C11.8887 18.736 12.3547 18.4094 12.685 17.9911C13.0152 17.5728 13.1804 17.0921 13.1804 16.549C13.1804 16.0426 13.0299 15.617 12.729 15.272C12.4354 14.9271 12.0024 14.6335 11.43 14.3913C10.8649 14.1491 10.1714 13.929 9.34939 13.7308L6.89449 13.1143C4.99368 12.652 3.49285 11.9291 2.392 10.9457C1.29115 9.96224 0.744392 8.63755 0.751731 6.97159C0.744392 5.60653 1.10767 4.41394 1.84158 3.39382C2.58282 2.3737 3.59927 1.57741 4.89094 1.00497C6.1826 0.432528 7.65041 0.146306 9.29435 0.146306C10.9676 0.146306 12.4281 0.432528 13.6757 1.00497C14.9307 1.57741 15.9068 2.3737 16.604 3.39382C17.3012 4.41394 17.6608 5.59552 17.6828 6.93856H13.1143ZM29.7069 15.1619H33.758L35.7946 17.782L37.7982 20.1158L41.5741 24.8494H37.1266L34.5286 21.657L33.1966 19.7635L29.7069 15.1619ZM41.9154 11.7273C41.9154 14.1858 41.4493 16.2775 40.5173 18.0021C39.5926 19.7268 38.3302 21.0442 36.7303 21.9542C35.1378 22.8569 33.3471 23.3082 31.3582 23.3082C29.3546 23.3082 27.5566 22.8532 25.964 21.9432C24.3714 21.0331 23.1128 19.7158 22.1881 17.9911C21.2634 16.2665 20.801 14.1785 20.801 11.7273C20.801 9.2687 21.2634 7.17708 22.1881 5.45242C23.1128 3.72775 24.3714 2.41406 25.964 1.51136C27.5566 0.601325 29.3546 0.146306 31.3582 0.146306C33.3471 0.146306 35.1378 0.601325 36.7303 1.51136C38.3302 2.41406 39.5926 3.72775 40.5173 5.45242C41.4493 7.17708 41.9154 9.2687 41.9154 11.7273ZM37.0826 11.7273C37.0826 10.1347 36.8441 8.79167 36.3671 7.69815C35.8974 6.60464 35.2332 5.77533 34.3745 5.21023C33.5158 4.64512 32.5104 4.36257 31.3582 4.36257C30.206 4.36257 29.2005 4.64512 28.3418 5.21023C27.4832 5.77533 26.8153 6.60464 26.3383 7.69815C25.8686 8.79167 25.6337 10.1347 25.6337 11.7273C25.6337 13.3198 25.8686 14.6629 26.3383 15.7564C26.8153 16.8499 27.4832 17.6792 28.3418 18.2443C29.2005 18.8094 30.206 19.092 31.3582 19.092C32.5104 19.092 33.5158 18.8094 34.3745 18.2443C35.2332 17.6792 35.8974 16.8499 36.3671 15.7564C36.8441 14.6629 37.0826 13.3198 37.0826 11.7273ZM45.4463 23V0.454545H50.213V19.07H59.8785V23H45.4463Z"
        fill="#000000" />
</svg>
    