<svg width="61" height="14" viewBox="0 0 61 14" fill="none" xmlns="http://www.w3.org/2000/svg">
    <path
        d="M6.15936 3.74645C6.11958 3.34541 5.94889 3.03385 5.64728 2.81179C5.34567 2.58972 4.93635 2.47869 4.4193 2.47869C4.06797 2.47869 3.77134 2.52841 3.52939 2.62784C3.28744 2.72396 3.10183 2.85819 2.97257 3.03054C2.84662 3.20289 2.78365 3.39844 2.78365 3.61719C2.77702 3.79948 2.81513 3.95857 2.89799 4.09446C2.98417 4.23035 3.10183 4.34801 3.25098 4.44744C3.40012 4.54356 3.57247 4.62808 3.76802 4.70099C3.96357 4.7706 4.17238 4.83026 4.39444 4.87997L5.30922 5.09872C5.75334 5.19815 6.16101 5.33073 6.53223 5.49645C6.90344 5.66217 7.22494 5.866 7.49672 6.10795C7.7685 6.34991 7.97896 6.63494 8.12811 6.96307C8.28057 7.29119 8.35846 7.66738 8.36177 8.09162C8.35846 8.71473 8.19937 9.25497 7.8845 9.71236C7.57295 10.1664 7.12219 10.5194 6.53223 10.7713C5.94558 11.0199 5.23796 11.1442 4.40936 11.1442C3.58739 11.1442 2.87148 11.0182 2.26163 10.7663C1.6551 10.5144 1.18114 10.1416 0.839755 9.64773C0.501687 9.15057 0.324367 8.53575 0.307795 7.80327H2.39089C2.41409 8.14465 2.51187 8.42969 2.68422 8.65838C2.85988 8.88376 3.09354 9.05445 3.38521 9.17045C3.68019 9.28314 4.01329 9.33949 4.3845 9.33949C4.74908 9.33949 5.06561 9.28646 5.33407 9.1804C5.60585 9.07434 5.81632 8.92685 5.96547 8.73793C6.11461 8.54901 6.18919 8.33191 6.18919 8.08665C6.18919 7.85795 6.12124 7.66572 5.98535 7.50994C5.85278 7.35417 5.65723 7.22159 5.3987 7.11222C5.1435 7.00284 4.83029 6.90341 4.45907 6.81392L3.35041 6.53551C2.49198 6.3267 1.81419 6.00024 1.31703 5.55611C0.819869 5.11198 0.572946 4.51373 0.576261 3.76136C0.572946 3.14489 0.737009 2.6063 1.06845 2.1456C1.4032 1.6849 1.86225 1.32528 2.44558 1.06676C3.02891 0.808238 3.69179 0.678977 4.43422 0.678977C5.1899 0.678977 5.84946 0.808238 6.41291 1.06676C6.97967 1.32528 7.42048 1.6849 7.73535 2.1456C8.05022 2.6063 8.21262 3.13991 8.22257 3.74645H6.15936ZM11.0775 13.8636C10.809 13.8636 10.5571 13.8421 10.3218 13.799C10.0898 13.7592 9.89758 13.7079 9.74512 13.6449L10.2224 12.0639C10.471 12.1402 10.6947 12.1816 10.8936 12.1882C11.0957 12.1948 11.2697 12.1484 11.4156 12.049C11.5647 11.9496 11.6857 11.7805 11.7785 11.5419L11.9028 11.2188L9.16344 3.36364H11.3907L12.9717 8.97159H13.0512L14.6471 3.36364H16.8893L13.9213 11.8253C13.7787 12.2363 13.5848 12.5942 13.3396 12.8991C13.0976 13.2074 12.791 13.4444 12.4198 13.6101C12.0486 13.7791 11.6012 13.8636 11.0775 13.8636ZM17.9731 11V3.36364H19.9916V4.71094H20.0811C20.2401 4.26349 20.5053 3.91051 20.8765 3.65199C21.2477 3.39347 21.6919 3.2642 22.2089 3.2642C22.7326 3.2642 23.1784 3.39512 23.5463 3.65696C23.9142 3.91548 24.1594 4.26681 24.282 4.71094H24.3616C24.5174 4.27344 24.7991 3.92377 25.2068 3.66193C25.6177 3.39678 26.1033 3.2642 26.6634 3.2642C27.376 3.2642 27.9544 3.49124 28.3985 3.94531C28.846 4.39607 29.0697 5.03575 29.0697 5.86435V11H26.9568V6.28196C26.9568 5.85772 26.8441 5.53954 26.6187 5.32741C26.3933 5.11529 26.1116 5.00923 25.7735 5.00923C25.3891 5.00923 25.0891 5.13187 24.8737 5.37713C24.6582 5.61908 24.5505 5.93892 24.5505 6.33665V11H22.4972V6.23722C22.4972 5.86269 22.3895 5.56439 22.1741 5.34233C21.962 5.12026 21.6819 5.00923 21.3339 5.00923C21.0986 5.00923 20.8865 5.06889 20.6975 5.18821C20.5119 5.30421 20.3644 5.46828 20.2551 5.6804C20.1457 5.8892 20.091 6.13447 20.091 6.41619V11H17.9731ZM34.8492 3.36364V4.95455H30.1361V3.36364H34.8492ZM31.2149 11V2.81179C31.2149 2.25829 31.3227 1.79924 31.5381 1.43466C31.7568 1.07008 32.0551 0.796638 32.433 0.614346C32.8108 0.432054 33.24 0.340908 33.7206 0.340908C34.0454 0.340908 34.3421 0.365767 34.6105 0.415483C34.8823 0.465199 35.0845 0.509943 35.2171 0.549716L34.8392 2.14062C34.7564 2.11411 34.6536 2.08925 34.531 2.06605C34.4117 2.04285 34.289 2.03125 34.1631 2.03125C33.8515 2.03125 33.6344 2.10417 33.5118 2.25C33.3892 2.39252 33.3279 2.59304 33.3279 2.85156V11H31.2149ZM39.3199 11.1491C38.5476 11.1491 37.8798 10.9851 37.3163 10.657C36.7562 10.3255 36.3237 9.86482 36.0187 9.27486C35.7138 8.68158 35.5613 7.99384 35.5613 7.21165C35.5613 6.42282 35.7138 5.73343 36.0187 5.14347C36.3237 4.55019 36.7562 4.08949 37.3163 3.76136C37.8798 3.42992 38.5476 3.2642 39.3199 3.2642C40.0921 3.2642 40.7583 3.42992 41.3184 3.76136C41.8819 4.08949 42.3161 4.55019 42.621 5.14347C42.9259 5.73343 43.0784 6.42282 43.0784 7.21165C43.0784 7.99384 42.9259 8.68158 42.621 9.27486C42.3161 9.86482 41.8819 10.3255 41.3184 10.657C40.7583 10.9851 40.0921 11.1491 39.3199 11.1491ZM39.3298 9.50852C39.6811 9.50852 39.9745 9.40909 40.2098 9.21023C40.4451 9.00805 40.6224 8.73295 40.7417 8.38494C40.8644 8.03693 40.9257 7.64086 40.9257 7.19673C40.9257 6.7526 40.8644 6.35653 40.7417 6.00852C40.6224 5.66051 40.4451 5.38542 40.2098 5.18324C39.9745 4.98106 39.6811 4.87997 39.3298 4.87997C38.9752 4.87997 38.6769 4.98106 38.4349 5.18324C38.1963 5.38542 38.0157 5.66051 37.893 6.00852C37.7737 6.35653 37.714 6.7526 37.714 7.19673C37.714 7.64086 37.7737 8.03693 37.893 8.38494C38.0157 8.73295 38.1963 9.00805 38.4349 9.21023C38.6769 9.40909 38.9752 9.50852 39.3298 9.50852ZM46.5734 6.58523V11H44.4555V3.36364H46.474V4.71094H46.5635C46.7325 4.26681 47.0159 3.91548 47.4136 3.65696C47.8113 3.39512 48.2936 3.2642 48.8604 3.2642C49.3907 3.2642 49.853 3.38021 50.2474 3.61222C50.6418 3.84422 50.9484 4.17566 51.1672 4.60653C51.3859 5.03409 51.4953 5.54451 51.4953 6.13778V11H49.3774V6.51562C49.3807 6.0483 49.2614 5.68371 49.0194 5.42188C48.7775 5.15672 48.4444 5.02415 48.0202 5.02415C47.7351 5.02415 47.4832 5.08546 47.2645 5.2081C47.049 5.33073 46.88 5.50971 46.7574 5.74503C46.6381 5.97704 46.5767 6.2571 46.5734 6.58523ZM54.1986 13.8636C53.9301 13.8636 53.6782 13.8421 53.4429 13.799C53.2109 13.7592 53.0187 13.7079 52.8662 13.6449L53.3435 12.0639C53.5921 12.1402 53.8158 12.1816 54.0146 12.1882C54.2168 12.1948 54.3908 12.1484 54.5367 12.049C54.6858 11.9496 54.8068 11.7805 54.8996 11.5419L55.0239 11.2188L52.2845 3.36364H54.5118L56.0928 8.97159H56.1723L57.7682 3.36364H60.0104L57.0423 11.8253C56.8998 12.2363 56.7059 12.5942 56.4607 12.8991C56.2187 13.2074 55.9121 13.4444 55.5409 13.6101C55.1697 13.7791 54.7223 13.8636 54.1986 13.8636Z"
        fill="#000000" />
</svg>
    